<svg xmlns="http://www.w3.org/2000/svg" xmlns:xlink="http://www.w3.org/1999/xlink" width="23" height="22" viewBox="0 0 23 22"><defs><path id="2e7xa" d="M1065.6 402.66c-1.78 0-3.4-.69-4.66-1.92a6.6 6.6 0 0 1 0-9.3 6.59 6.59 0 0 1 11.22 4.65 6.58 6.58 0 0 1-6.57 6.57zm12.5 4.23l-5.37-5.37a8.94 8.94 0 0 0-.8-11.79 8.92 8.92 0 0 0-6.37-2.64 9 9 0 1 0 5.43 16.17l5.4 5.34c.24.24.54.36.87.36.3 0 .63-.12.87-.36.45-.45.45-1.23-.03-1.71z"/></defs><g><g transform="translate(-1056 -387)"><use fill="#fff" xlink:href="#2e7xa"/></g></g></svg>