<svg xmlns="http://www.w3.org/2000/svg" xmlns:xlink="http://www.w3.org/1999/xlink" width="25" height="25" viewBox="0 0 25 25"><defs><path id="7xl3a" d="M1010.9 398.53c0 .4-.03.8-.08 1.2 0-.07.02-.14.03-.2a8.88 8.88 0 0 1-.71 2.43 8.74 8.74 0 0 1-.9 1.45l-.06.09a8.81 8.81 0 0 1-1.39 1.38l.04-.03-.08.06a8.89 8.89 0 0 1-1.73 1.01c-.18.08.13-.06.01 0a8.42 8.42 0 0 1-2.16.58l.2-.03c-.79.1-1.59.1-2.38 0 .07 0 .14.02.2.03a8.89 8.89 0 0 1-2.43-.71 8.75 8.75 0 0 1-2.04-1.4 8.81 8.81 0 0 1-.88-.95l.03.04a9.2 9.2 0 0 1-1.07-1.81c-.08-.18.05.13 0 .01a8.72 8.72 0 0 1-.58-2.16l.03.2c-.1-.79-.1-1.59 0-2.38 0 .07-.02.14-.03.2a8.89 8.89 0 0 1 .71-2.43 8.74 8.74 0 0 1 1.4-2.04 8.81 8.81 0 0 1 .95-.88 8.72 8.72 0 0 1 1.78-1.04c.17-.08-.14.05-.02 0a8.72 8.72 0 0 1 2.15-.58l-.2.03c.8-.1 1.6-.1 2.38 0l-.2-.03a8.89 8.89 0 0 1 2.44.71 8.74 8.74 0 0 1 2.04 1.4 8.82 8.82 0 0 1 .88.95 9.06 9.06 0 0 1 1.04 1.78c.08.17-.06-.14 0-.02a8.72 8.72 0 0 1 .63 3.14c0 .41.34.75.75.75.4 0 .75-.34.75-.75a9.6 9.6 0 0 0-2.91-6.85 9.57 9.57 0 0 0-6.98-2.65 9.56 9.56 0 0 0-6.71 3.16 9.55 9.55 0 0 0 8.2 15.79 9.66 9.66 0 0 0 3.69-1.23 9.46 9.46 0 0 0 4.71-8.22c0-.4-.34-.75-.75-.75s-.75.35-.75.75z"/><path id="7xl3b" d="M991.51 399.28h4.97c.4 0 .75-.34.75-.75 0-.4-.34-.75-.75-.75h-4.97c-.4 0-.75.34-.75.75 0 .4.34.75.75.75z"/><path id="7xl3c" d="M1009.25 399.28h4.97c.4 0 .75-.34.75-.75 0-.4-.34-.75-.75-.75h-4.97c-.4 0-.75.34-.75.75 0 .4.34.75.75.75z"/><path id="7xl3d" d="M1003.64 409.92v-4-.97c0-.4-.34-.75-.75-.75-.4 0-.75.34-.75.75v4.97c0 .4.34.75.75.75.4 0 .75-.34.75-.75z"/><path id="7xl3e" d="M1005.02 398.53c0 .12 0 .25-.02.37l.02-.2a3.13 3.13 0 0 1-.19.73c.1-.24.03-.07 0-.02a2.89 2.89 0 0 1-.29.48l.03-.04a2.9 2.9 0 0 1-.4.39c-.1.08.17-.12.02-.01a2.9 2.9 0 0 1-.4.23l-.09.05.05-.02a2.88 2.88 0 0 1-.7.18c.07 0 .14-.02.2-.03-.24.03-.5.03-.74 0l.2.03a3.13 3.13 0 0 1-.73-.2c.24.1.07.04.02.01a2.88 2.88 0 0 1-.48-.3c.2.15.09.07.04.04a2.9 2.9 0 0 1-.32-.32l-.07-.08c-.08-.1.12.17.01.01a2.9 2.9 0 0 1-.23-.39l-.05-.1c-.06-.12.07.19.02.06a2.86 2.86 0 0 1-.18-.7c0 .07.02.13.03.2-.03-.25-.03-.5 0-.74l-.03.2a3.13 3.13 0 0 1 .2-.73c-.1.24-.04.07-.01.02l.23-.4.06-.08-.03.04a2.9 2.9 0 0 1 .4-.4c.1-.07-.17.13-.01.02.12-.09.25-.17.39-.24l.1-.04c.12-.06-.19.07-.06.02a2.86 2.86 0 0 1 .7-.18l-.2.02c.25-.03.5-.03.74 0l-.2-.02a3.13 3.13 0 0 1 .73.2c-.24-.1-.07-.04-.02-.01a2.88 2.88 0 0 1 .48.3 2.9 2.9 0 0 1 .35.37c.08.09-.12-.18 0-.03l.23.4.04.09-.02-.05a2.88 2.88 0 0 1 .18.7l-.02-.2.02.37c0 .4.34.75.75.75.4 0 .75-.34.75-.75a3.65 3.65 0 0 0-2.3-3.38 3.65 3.65 0 0 0-4.9 2.63 3.65 3.65 0 0 0 6.14 3.31 3.67 3.67 0 0 0 1.06-2.56c0-.41-.34-.75-.75-.75a.76.76 0 0 0-.75.75z"/><path id="7xl3f" d="M1003.73 392.22v-3.94-1.53c0-.4-.34-.75-.75-.75-.4 0-.75.34-.75.75v5.47c0 .41.34.75.75.75.4 0 .75-.34.75-.75z"/></defs><g><g transform="translate(-990 -386)"><g><use fill="#434343" xlink:href="#7xl3a"/></g><g><use fill="#434343" xlink:href="#7xl3b"/></g><g><use fill="#434343" xlink:href="#7xl3c"/></g><g><use fill="#434343" xlink:href="#7xl3d"/></g><g><use fill="#434343" xlink:href="#7xl3e"/></g><g><use fill="#434343" xlink:href="#7xl3f"/></g></g></g></svg>